<svg width="48" height="32" viewBox="0 0 48 32" fill="none" xmlns="http://www.w3.org/2000/svg">
<rect width="48" height="32" rx="4" fill="#003087"/>
<path d="M8 12h4l1 8h-2l-0.5-4H10l-0.5 4H8zm6 0h2l1 8h-2l-0.5-4H16l-0.5 4H14zm6 0h2l1 8h-2l-0.5-4H22l-0.5 4H20zm6 0h2l1 8h-2l-0.5-4H28l-0.5 4H26zm6 0h2l1 8h-2l-0.5-4H34l-0.5 4H32z" fill="white"/>
<circle cx="12" cy="10" r="1" fill="white"/>
<circle cx="16" cy="10" r="1" fill="white"/>
<circle cx="22" cy="10" r="1" fill="white"/>
<circle cx="26" cy="10" r="1" fill="white"/>
<circle cx="32" cy="10" r="1" fill="white"/>
<circle cx="36" cy="10" r="1" fill="white"/>
</svg>
